<svg xmlns="http://www.w3.org/2000/svg" width="80" height="80" viewBox="0 0 80 80" fill="none">
  <circle cx="40" cy="40" r="40" fill="#4361EE" fill-opacity="0.1"/>
  <path d="M26 30C26 27.7909 27.7909 26 30 26H50C52.2091 26 54 27.7909 54 30V50C54 52.2091 52.2091 54 50 54H30C27.7909 54 26 52.2091 26 50V30Z" fill="#4361EE" fill-opacity="0.2"/>
  <path d="M40 35C42.7614 35 45 32.7614 45 30C45 27.2386 42.7614 25 40 25C37.2386 25 35 27.2386 35 30C35 32.7614 37.2386 35 40 35Z" fill="#4895EF" fill-opacity="0.5"/>
  <path d="M40 55C42.7614 55 45 52.7614 45 50C45 47.2386 42.7614 45 40 45C37.2386 45 35 47.2386 35 50C35 52.7614 37.2386 55 40 55Z" fill="#4CC9F0" fill-opacity="0.5"/>
  <path d="M50 45C52.7614 45 55 42.7614 55 40C55 37.2386 52.7614 35 50 35C47.2386 35 45 37.2386 45 40C45 42.7614 47.2386 45 50 45Z" fill="#3F37C9" fill-opacity="0.5"/>
  <path d="M30 45C32.7614 45 35 42.7614 35 40C35 37.2386 32.7614 35 30 35C27.2386 35 25 37.2386 25 40C25 42.7614 27.2386 45 30 45Z" fill="#F72585" fill-opacity="0.5"/>
  <path d="M45 30L35 50" stroke="#4361EE" stroke-width="2" stroke-linecap="round"/>
  <path d="M25 40L55 40" stroke="#4361EE" stroke-width="2" stroke-linecap="round"/>
</svg>
